<svg aria-label="Conta verificada" class="profile__verified" viewBox="0 0 60 72" style="display: inline-block; fill: currentcolor; height: 1.25em; max-width: 100%; position: relative; user-select: none; vertical-align: text-bottom;"><g><path d="M57 37.288c0-4.069-2.251-7.589-5.523-9.26a10.73 10.73 0 0 0 .613-3.598c0-5.683-4.394-10.283-9.818-10.283a9.269 9.269 0 0 0-3.436.64C37.246 11.357 33.886 9 30 9c-3.885 0-7.242 2.357-8.837 5.787a9.274 9.274 0 0 0-3.434-.64c-5.425 0-9.818 4.6-9.818 10.283 0 1.27.216 2.478.611 3.598-3.269 1.671-5.521 5.192-5.521 9.26 0 3.84 2.012 7.193 4.992 8.96-.052.435-.083.874-.083 1.323 0 5.682 4.392 10.283 9.818 10.283a9.354 9.354 0 0 0 3.434-.638C22.758 60.644 26.115 63 30 63c3.887 0 7.246-2.356 8.837-5.784a9.35 9.35 0 0 0 3.436.638c5.423 0 9.818-4.601 9.818-10.283 0-.449-.035-.887-.086-1.323 2.976-1.767 4.995-5.12 4.995-8.96zm-14.797-6.742s-14.558 14.55-14.878 14.872a2.787 2.787 0 0 1-1.98.823 2.786 2.786 0 0 1-1.97-.813l-6.53-6.498a2.794 2.794 0 0 1 3.94-3.961l4.555 4.532 12.914-12.907a2.794 2.794 0 0 1 3.949 3.952z"></path></g></svg>
